<?xml version="1.0" encoding="UTF-8"?>
<svg id="Layer_1" data-name="Layer 1" xmlns="http://www.w3.org/2000/svg" viewBox="0 0 574.27 198.21">
  <defs>
    <style>
      .cls-1 {
        fill: #39b54a;
        font-family: GravitaGEO-Bold, 'Gravita GEO';
        font-size: 82.4px;
        font-variation-settings: 'wght' 709;
        font-weight: 700;
      }

      .cls-2 {
        letter-spacing: 0em;
      }

      .cls-3 {
        letter-spacing: 0em;
      }

      .cls-4 {
        fill: #11ae4b;
      }

      .cls-5 {
        letter-spacing: -.02em;
      }
    </style>
  </defs>
  <g>
    <path class="cls-4" d="M193.06,60.53c-.54-1.27-1.11-2.52-1.7-3.76-3.98,4.2-7.89,8.39-11.72,12.58,3.59,9.25,5.55,19.28,5.55,29.75,0,46.07-38,83.55-84.71,83.55S15.77,145.18,15.77,99.11,53.77,15.56,100.48,15.56c16.55,0,32.01,4.71,45.07,12.84,1.92-1.6,3.87-3.17,5.82-4.71,2.47-1.93,4.89-3.74,7.27-5.41-5.92-4.16-12.29-7.66-19.05-10.48C127.2,2.62,114.04,0,100.48,0s-26.72,2.62-39.11,7.79c-11.97,4.99-22.71,12.14-31.94,21.24-9.23,9.1-16.47,19.7-21.53,31.5C2.66,72.75,0,85.73,0,99.11s2.66,26.36,7.9,38.58c5.06,11.8,12.3,22.4,21.53,31.5,9.23,9.1,19.97,16.24,31.94,21.24,12.39,5.17,25.55,7.79,39.11,7.79s26.72-2.62,39.11-7.79c11.97-4.99,22.71-12.14,31.94-21.24,9.23-9.1,16.47-19.7,21.53-31.5,5.24-12.22,7.9-25.2,7.9-38.58s-2.66-26.36-7.9-38.58Z"/>
    <path class="cls-4" d="M42.21,87.22c.49,2.18,1.86,4.23,3.17,6.11,8.94,12.75,17.88,25.5,26.81,38.24,4.27,6.09,8.16,12.99,13.07,18.58,3.51,4,10.18,4.26,14.43,1.26,3.7-2.61,5.89-6.78,8.03-10.74,25.74-47.6,64.13-87.19,102.54-125.59-18.16-.18-34.86,9.65-49.09,20.79-28.95,22.67-52.17,52.03-69.6,84.18-8.66-10.58-17.33-21.16-25.99-31.74-3.2-3.91-6.69-8.02-11.55-9.54-4.86-1.52-11.33.95-11.97,5.94-.11.85-.05,1.69.14,2.5Z"/>
  </g>
  <text class="cls-1" transform="translate(228.36 131.56) rotate(-.37) scale(.7 1)"><tspan class="cls-5" x="0" y="0">C</tspan><tspan class="cls-3" x="50.76" y="0">O</tspan><tspan class="cls-2" x="118" y="0">MPL</tspan><tspan class="cls-3" x="288.57" y="0">E</tspan><tspan x="337.43" y="0">TED</tspan></text>
</svg>