<?xml version="1.0" encoding="UTF-8"?>
<svg id="Layer_1" data-name="Layer 1" xmlns="http://www.w3.org/2000/svg" viewBox="0 0 498.28 200">
  <defs>
    <style>
      .cls-1 {
        fill: #fff;
      }

      .cls-2 {
        fill: #ffb001;
      }

      .cls-3 {
        fill: #fbb03b;
        font-family: GravitaGEO-Bold, 'Gravita GEO';
        font-size: 82.4px;
        font-variation-settings: 'wght' 709;
        font-weight: 700;
      }
    </style>
  </defs>
  <text class="cls-3" transform="translate(233.09 131.35) rotate(-.37) scale(.7 1)"><tspan x="0" y="0">PENDING</tspan></text>
  <g>
    <path class="cls-2" d="M97.36,0C43.7,0,0,44.85,0,99.98s43.7,100.02,97.36,100.02,97.33-44.89,97.33-100.02S151.04,0,97.36,0Z"/>
    <g>
      <path class="cls-1" d="M62.8,104.58c0,5.08,4.01,9.2,8.95,9.2s8.95-4.12,8.95-9.2-4.01-9.19-8.95-9.19-8.95,4.12-8.95,9.19Z"/>
      <path class="cls-1" d="M88.39,104.58c0,5.08,4.01,9.2,8.95,9.2s8.95-4.12,8.95-9.2-4.01-9.19-8.95-9.19-8.95,4.12-8.95,9.19Z"/>
      <path class="cls-1" d="M122.94,113.77c4.94,0,8.95-4.12,8.95-9.2s-4.01-9.19-8.95-9.19-8.95,4.12-8.95,9.19,4.01,9.2,8.95,9.2Z"/>
      <path class="cls-1" d="M133.93,56.33c-2.22-1.78-5.43-1.37-7.16.91-1.73,2.28-1.34,5.58.89,7.36,12.08,9.68,19.01,24.26,19.01,39.98,0,27.94-22.13,50.67-49.32,50.67s-49.32-22.73-49.32-50.67,21.89-50.41,48.88-50.66l-8.38,8.61c-1.99,2.05-1.99,5.37,0,7.41,1,1.02,2.3,1.54,3.61,1.54s2.61-.51,3.61-1.54l17.11-17.58c1.99-2.05,1.99-5.37,0-7.41l-17.11-17.58c-1.99-2.05-5.23-2.05-7.22,0-1.99,2.05-1.99,5.37,0,7.41l8.41,8.64c-32.63.24-59.11,27.57-59.11,61.14s26.71,61.16,59.53,61.16,59.53-27.44,59.53-61.16c0-18.98-8.36-36.56-22.94-48.24Z"/>
    </g>
  </g>
</svg>